<mxfile host="65bd71144e">
    <diagram id="ZmmitQ3ADsIECmkybK1L" name="Page-1">
        <mxGraphModel dx="873" dy="1466" grid="0" gridSize="10" guides="1" tooltips="1" connect="1" arrows="1" fold="1" page="1" pageScale="1" pageWidth="1100" pageHeight="850" background="none" math="0" shadow="0">
            <root>
                <mxCell id="0"/>
                <mxCell id="1" parent="0"/>
                <mxCell id="120" style="edgeStyle=none;html=1;" parent="1" source="7" target="48" edge="1">
                    <mxGeometry relative="1" as="geometry"/>
                </mxCell>
                <mxCell id="123" style="edgeStyle=none;html=1;entryX=1;entryY=0.5;entryDx=0;entryDy=0;exitX=0;exitY=0.25;exitDx=0;exitDy=0;" parent="1" source="8" target="35" edge="1">
                    <mxGeometry relative="1" as="geometry">
                        <mxPoint x="652" y="294" as="sourcePoint"/>
                        <Array as="points">
                            <mxPoint x="587" y="294"/>
                            <mxPoint x="587" y="381"/>
                        </Array>
                    </mxGeometry>
                </mxCell>
                <mxCell id="7" value="Batch" style="swimlane;childLayout=stackLayout;horizontal=1;startSize=30;horizontalStack=0;rounded=1;fontSize=14;fontStyle=0;strokeWidth=2;resizeParent=0;resizeLast=1;shadow=0;dashed=0;align=center;" parent="1" vertex="1">
                    <mxGeometry x="629" y="247" width="160" height="96" as="geometry"/>
                </mxCell>
                <mxCell id="8" value="id&#10;name&#10;created_at&#10;updated_at" style="align=left;strokeColor=none;fillColor=none;spacingLeft=4;fontSize=12;verticalAlign=top;resizable=0;rotatable=0;part=1;" parent="7" vertex="1">
                    <mxGeometry y="30" width="160" height="66" as="geometry"/>
                </mxCell>
                <mxCell id="9" value="program_courses" style="swimlane;childLayout=stackLayout;horizontal=1;startSize=30;horizontalStack=0;rounded=1;fontSize=14;fontStyle=0;strokeWidth=2;resizeParent=0;resizeLast=1;shadow=0;dashed=0;align=center;" parent="1" vertex="1">
                    <mxGeometry x="1453" y="-53" width="160" height="141" as="geometry"/>
                </mxCell>
                <mxCell id="10" value="id&#10;course_id&#10;program_id&#10;credit_value&#10;unit_id&#10;created_at&#10;Updated_at&#10;" style="align=left;strokeColor=none;fillColor=none;spacingLeft=4;fontSize=12;verticalAlign=top;resizable=0;rotatable=0;part=1;" parent="9" vertex="1">
                    <mxGeometry y="30" width="160" height="111" as="geometry"/>
                </mxCell>
                <mxCell id="11" value="school" style="swimlane;childLayout=stackLayout;horizontal=1;startSize=30;horizontalStack=0;rounded=1;fontSize=14;fontStyle=0;strokeWidth=2;resizeParent=0;resizeLast=1;shadow=0;dashed=0;align=center;" parent="1" vertex="1">
                    <mxGeometry x="1164" y="629" width="160" height="113" as="geometry"/>
                </mxCell>
                <mxCell id="12" value="id&#10;name&#10;logo&#10;created_at&#10;updated_at" style="align=left;strokeColor=none;fillColor=none;spacingLeft=4;fontSize=12;verticalAlign=top;resizable=0;rotatable=0;part=1;" parent="11" vertex="1">
                    <mxGeometry y="30" width="160" height="83" as="geometry"/>
                </mxCell>
                <mxCell id="129" style="edgeStyle=none;html=1;entryX=0.75;entryY=1;entryDx=0;entryDy=0;exitX=0.25;exitY=1;exitDx=0;exitDy=0;" parent="1" source="14" target="22" edge="1">
                    <mxGeometry relative="1" as="geometry">
                        <Array as="points">
                            <mxPoint x="1921" y="584"/>
                            <mxPoint x="1068" y="584"/>
                        </Array>
                    </mxGeometry>
                </mxCell>
                <mxCell id="13" value="campus" style="swimlane;childLayout=stackLayout;horizontal=1;startSize=30;horizontalStack=0;rounded=1;fontSize=14;fontStyle=0;strokeWidth=2;resizeParent=0;resizeLast=1;shadow=0;dashed=0;align=center;" parent="1" vertex="1">
                    <mxGeometry x="1881" y="292" width="160" height="120" as="geometry"/>
                </mxCell>
                <mxCell id="14" value="id&#10;name&#10;school_ud&#10;created_at&#10;updated_at" style="align=left;strokeColor=none;fillColor=none;spacingLeft=4;fontSize=12;verticalAlign=top;resizable=0;rotatable=0;part=1;" parent="13" vertex="1">
                    <mxGeometry y="30" width="160" height="90" as="geometry"/>
                </mxCell>
                <mxCell id="15" value="campus_program" style="swimlane;childLayout=stackLayout;horizontal=1;startSize=30;horizontalStack=0;rounded=1;fontSize=14;fontStyle=0;strokeWidth=2;resizeParent=0;resizeLast=1;shadow=0;dashed=0;align=center;" parent="1" vertex="1">
                    <mxGeometry x="1597" y="200" width="160" height="112" as="geometry"/>
                </mxCell>
                <mxCell id="16" value="id&#10;campus_id&#10;program_id&#10;created_at&#10;updated_at" style="align=left;strokeColor=none;fillColor=none;spacingLeft=4;fontSize=12;verticalAlign=top;resizable=0;rotatable=0;part=1;" parent="15" vertex="1">
                    <mxGeometry y="30" width="160" height="82" as="geometry"/>
                </mxCell>
                <mxCell id="127" style="edgeStyle=none;html=1;" parent="1" source="17" edge="1">
                    <mxGeometry relative="1" as="geometry">
                        <Array as="points">
                            <mxPoint x="1707" y="61"/>
                            <mxPoint x="1707" y="25"/>
                        </Array>
                        <mxPoint x="1613" y="25" as="targetPoint"/>
                    </mxGeometry>
                </mxCell>
                <mxCell id="17" value="program" style="swimlane;childLayout=stackLayout;horizontal=1;startSize=30;horizontalStack=0;rounded=1;fontSize=14;fontStyle=0;strokeWidth=2;resizeParent=0;resizeLast=1;shadow=0;dashed=0;align=center;" parent="1" vertex="1">
                    <mxGeometry x="1804" y="3" width="160" height="117" as="geometry"/>
                </mxCell>
                <mxCell id="18" value="id&#10;name&#10;department_id&#10;created_at&#10;updated_at" style="align=left;strokeColor=none;fillColor=none;spacingLeft=4;fontSize=12;verticalAlign=top;resizable=0;rotatable=0;part=1;" parent="17" vertex="1">
                    <mxGeometry y="30" width="160" height="87" as="geometry"/>
                </mxCell>
                <mxCell id="100" style="edgeStyle=none;html=1;entryX=0.5;entryY=1;entryDx=0;entryDy=0;exitX=0;exitY=0.75;exitDx=0;exitDy=0;" parent="1" source="10" target="73" edge="1">
                    <mxGeometry relative="1" as="geometry">
                        <Array as="points">
                            <mxPoint x="1337" y="60"/>
                        </Array>
                    </mxGeometry>
                </mxCell>
                <mxCell id="101" style="edgeStyle=none;html=1;exitX=0.696;exitY=-0.007;exitDx=0;exitDy=0;entryX=0.001;entryY=0.129;entryDx=0;entryDy=0;entryPerimeter=0;exitPerimeter=0;" parent="1" source="9" target="71" edge="1">
                    <mxGeometry relative="1" as="geometry">
                        <Array as="points">
                            <mxPoint x="1564" y="-126"/>
                        </Array>
                    </mxGeometry>
                </mxCell>
                <mxCell id="119" style="edgeStyle=none;html=1;exitX=0;exitY=0.5;exitDx=0;exitDy=0;entryX=0.988;entryY=0.335;entryDx=0;entryDy=0;entryPerimeter=0;" parent="1" source="10" target="48" edge="1">
                    <mxGeometry relative="1" as="geometry">
                        <mxPoint x="751" y="-29" as="targetPoint"/>
                        <Array as="points">
                            <mxPoint x="1231" y="33"/>
                            <mxPoint x="1231" y="-29"/>
                        </Array>
                    </mxGeometry>
                </mxCell>
                <mxCell id="19" value="courses" style="swimlane;childLayout=stackLayout;horizontal=1;startSize=30;horizontalStack=0;rounded=1;fontSize=14;fontStyle=0;strokeWidth=2;resizeParent=0;resizeLast=1;shadow=0;dashed=0;align=center;" parent="1" vertex="1">
                    <mxGeometry x="1119" y="51" width="160" height="147" as="geometry"/>
                </mxCell>
                <mxCell id="20" value="id&#10;code&#10;name&#10;status&#10;credit_value&#10;created_at&#10;updated_at" style="align=left;strokeColor=none;fillColor=none;spacingLeft=4;fontSize=12;verticalAlign=top;resizable=0;rotatable=0;part=1;" parent="19" vertex="1">
                    <mxGeometry y="30" width="160" height="117" as="geometry"/>
                </mxCell>
                <mxCell id="21" value="config" style="swimlane;childLayout=stackLayout;horizontal=1;startSize=30;horizontalStack=0;rounded=1;fontSize=14;fontStyle=0;strokeWidth=2;resizeParent=0;resizeLast=1;shadow=0;dashed=0;align=center;" parent="1" vertex="1">
                    <mxGeometry x="948" y="240" width="160" height="199" as="geometry"/>
                </mxCell>
                <mxCell id="22" value="id&#10;name&#10;value&#10;seq_id&#10;year_id&#10;start_date&#10;end_date&#10;school_id&#10;campus_id&#10;created_at&#10;updated_at" style="align=left;strokeColor=none;fillColor=none;spacingLeft=4;fontSize=12;verticalAlign=top;resizable=0;rotatable=0;part=1;" parent="21" vertex="1">
                    <mxGeometry y="30" width="160" height="169" as="geometry"/>
                </mxCell>
                <mxCell id="23" value="student_program" style="swimlane;childLayout=stackLayout;horizontal=1;startSize=30;horizontalStack=0;rounded=1;fontSize=14;fontStyle=0;strokeWidth=2;resizeParent=0;resizeLast=1;shadow=0;dashed=0;align=center;" parent="1" vertex="1">
                    <mxGeometry x="892" y="55" width="160" height="130" as="geometry"/>
                </mxCell>
                <mxCell id="24" value="id&#10;student_id&#10;program_id&#10;batch_id&#10;created_at&#10;updated_at" style="align=left;strokeColor=none;fillColor=none;spacingLeft=4;fontSize=12;verticalAlign=top;resizable=0;rotatable=0;part=1;" parent="23" vertex="1">
                    <mxGeometry y="30" width="160" height="100" as="geometry"/>
                </mxCell>
                <mxCell id="25" value="expenses" style="swimlane;childLayout=stackLayout;horizontal=1;startSize=30;horizontalStack=0;rounded=1;fontSize=14;fontStyle=0;strokeWidth=2;resizeParent=0;resizeLast=1;shadow=0;dashed=0;align=center;" parent="1" vertex="1">
                    <mxGeometry x="1146" y="-338" width="160" height="168" as="geometry"/>
                </mxCell>
                <mxCell id="26" value="id&#10;amount_spent&#10;campus_id&#10;date&#10;name&#10;user_id&#10;campus_id&#10;created_at&#10;updated_at" style="align=left;strokeColor=none;fillColor=none;spacingLeft=4;fontSize=12;verticalAlign=top;resizable=0;rotatable=0;part=1;" parent="25" vertex="1">
                    <mxGeometry y="30" width="160" height="138" as="geometry"/>
                </mxCell>
                <mxCell id="27" value="income" style="swimlane;childLayout=stackLayout;horizontal=1;startSize=30;horizontalStack=0;rounded=1;fontSize=14;fontStyle=0;strokeWidth=2;resizeParent=0;resizeLast=1;shadow=0;dashed=0;align=center;" parent="1" vertex="1">
                    <mxGeometry x="513" y="-541.5" width="160" height="153.5" as="geometry"/>
                </mxCell>
                <mxCell id="28" value="id&#10;amount&#10;date&#10;name&#10;user_id&#10;campus_id&#10;created_at&#10;updated_at" style="align=left;strokeColor=none;fillColor=none;spacingLeft=4;fontSize=12;verticalAlign=top;resizable=0;rotatable=0;part=1;" parent="27" vertex="1">
                    <mxGeometry y="30" width="160" height="123.5" as="geometry"/>
                </mxCell>
                <mxCell id="30" value="payments" style="swimlane;childLayout=stackLayout;horizontal=1;startSize=30;horizontalStack=0;rounded=1;fontSize=14;fontStyle=0;strokeWidth=2;resizeParent=0;resizeLast=1;shadow=0;dashed=0;align=center;" parent="1" vertex="1">
                    <mxGeometry x="400" y="-8" width="160" height="212" as="geometry"/>
                </mxCell>
                <mxCell id="33" style="edgeStyle=none;html=1;" parent="30" source="31" target="30" edge="1">
                    <mxGeometry relative="1" as="geometry"/>
                </mxCell>
                <mxCell id="31" value="id&#10;amount&#10;transaction_id&#10;discount&#10;batch_id&#10;payment_id&#10;student_id&#10;unit_id&#10;program_id&#10;campus_id&#10;created_at&#10;updated_at" style="align=left;strokeColor=none;fillColor=none;spacingLeft=4;fontSize=12;verticalAlign=top;resizable=0;rotatable=0;part=1;" parent="30" vertex="1">
                    <mxGeometry y="30" width="160" height="182" as="geometry"/>
                </mxCell>
                <mxCell id="34" value="payment_items" style="swimlane;childLayout=stackLayout;horizontal=1;startSize=30;horizontalStack=0;rounded=1;fontSize=14;fontStyle=0;strokeWidth=2;resizeParent=0;resizeLast=1;shadow=0;dashed=0;align=center;" parent="1" vertex="1">
                    <mxGeometry x="396" y="274" width="160" height="195" as="geometry"/>
                </mxCell>
                <mxCell id="35" value="id&#10;amount&#10;name&#10;slug&#10;unit&#10;program_id&#10;year_id&#10;discount&#10;campus_id&#10;created_id&#10;updated_at" style="align=left;strokeColor=none;fillColor=none;spacingLeft=4;fontSize=12;verticalAlign=top;resizable=0;rotatable=0;part=1;" parent="34" vertex="1">
                    <mxGeometry y="30" width="160" height="165" as="geometry"/>
                </mxCell>
                <mxCell id="94" style="edgeStyle=none;html=1;entryX=0.5;entryY=1;entryDx=0;entryDy=0;" parent="1" source="40" target="83" edge="1">
                    <mxGeometry relative="1" as="geometry"/>
                </mxCell>
                <mxCell id="40" value="permissions" style="swimlane;childLayout=stackLayout;horizontal=1;startSize=30;horizontalStack=0;rounded=1;fontSize=14;fontStyle=0;strokeWidth=2;resizeParent=0;resizeLast=1;shadow=0;dashed=0;align=center;" parent="1" vertex="1">
                    <mxGeometry x="1658" y="-352.5" width="160" height="130" as="geometry"/>
                </mxCell>
                <mxCell id="41" value="id&#10;name&#10;name_fr&#10;slug&#10;created_at&#10;updated_at" style="align=left;strokeColor=none;fillColor=none;spacingLeft=4;fontSize=12;verticalAlign=top;resizable=0;rotatable=0;part=1;" parent="40" vertex="1">
                    <mxGeometry y="30" width="160" height="100" as="geometry"/>
                </mxCell>
                <mxCell id="47" value="results" style="swimlane;childLayout=stackLayout;horizontal=1;startSize=30;horizontalStack=0;rounded=1;fontSize=14;fontStyle=0;strokeWidth=2;resizeParent=0;resizeLast=1;shadow=0;dashed=0;align=center;" parent="1" vertex="1">
                    <mxGeometry x="629" y="-115" width="160" height="196" as="geometry"/>
                </mxCell>
                <mxCell id="48" value="id&#10;batch_id&#10;program_id&#10;program_course_id&#10;credit_value&#10;score&#10;sequence_id&#10;student_id&#10;course_id&#10;created_at&#10;updated_at" style="align=left;strokeColor=none;fillColor=none;spacingLeft=4;fontSize=12;verticalAlign=top;resizable=0;rotatable=0;part=1;" parent="47" vertex="1">
                    <mxGeometry y="30" width="160" height="166" as="geometry"/>
                </mxCell>
                <mxCell id="90" style="edgeStyle=none;html=1;entryX=0;entryY=0.5;entryDx=0;entryDy=0;" parent="1" source="49" target="84" edge="1">
                    <mxGeometry relative="1" as="geometry">
                        <mxPoint x="1716.0770874023438" y="-721.1060180664062" as="targetPoint"/>
                        <Array as="points">
                            <mxPoint x="1593" y="-675"/>
                        </Array>
                    </mxGeometry>
                </mxCell>
                <mxCell id="115" style="edgeStyle=none;html=1;entryX=0.5;entryY=0;entryDx=0;entryDy=0;" parent="1" source="49" target="52" edge="1">
                    <mxGeometry relative="1" as="geometry">
                        <Array as="points">
                            <mxPoint x="1486" y="-770"/>
                            <mxPoint x="1919" y="-770"/>
                        </Array>
                    </mxGeometry>
                </mxCell>
                <mxCell id="49" value="roles" style="swimlane;childLayout=stackLayout;horizontal=1;startSize=30;horizontalStack=0;rounded=1;fontSize=14;fontStyle=0;strokeWidth=2;resizeParent=0;resizeLast=1;shadow=0;dashed=0;align=center;" parent="1" vertex="1">
                    <mxGeometry x="1406" y="-747" width="160" height="141.5" as="geometry"/>
                </mxCell>
                <mxCell id="50" value="id&#10;name&#10;name_fr&#10;slug&#10;campus_id&#10;created_at&#10;updated_at" style="align=left;strokeColor=none;fillColor=none;spacingLeft=4;fontSize=12;verticalAlign=top;resizable=0;rotatable=0;part=1;" parent="49" vertex="1">
                    <mxGeometry y="30" width="160" height="111.5" as="geometry"/>
                </mxCell>
                <mxCell id="52" value="roles_permissions" style="swimlane;childLayout=stackLayout;horizontal=1;startSize=30;horizontalStack=0;rounded=1;fontSize=14;fontStyle=0;strokeWidth=2;resizeParent=0;resizeLast=1;shadow=0;dashed=0;align=center;" parent="1" vertex="1">
                    <mxGeometry x="1839" y="-512.5" width="160" height="114" as="geometry"/>
                </mxCell>
                <mxCell id="53" value="id&#10;role_id&#10;permission_id&#10;created_at&#10;updated_at" style="align=left;strokeColor=none;fillColor=none;spacingLeft=4;fontSize=12;verticalAlign=top;resizable=0;rotatable=0;part=1;" parent="52" vertex="1">
                    <mxGeometry y="30" width="160" height="84" as="geometry"/>
                </mxCell>
                <mxCell id="96" style="edgeStyle=none;html=1;entryX=1;entryY=0.5;entryDx=0;entryDy=0;exitX=0.25;exitY=1;exitDx=0;exitDy=0;" parent="1" source="55" target="68" edge="1">
                    <mxGeometry relative="1" as="geometry">
                        <mxPoint x="971.5" y="-261" as="sourcePoint"/>
                        <Array as="points">
                            <mxPoint x="963.5" y="-462"/>
                        </Array>
                    </mxGeometry>
                </mxCell>
                <mxCell id="54" value="scholarships" style="swimlane;childLayout=stackLayout;horizontal=1;startSize=30;horizontalStack=0;rounded=1;fontSize=14;fontStyle=0;strokeWidth=2;resizeParent=0;resizeLast=1;shadow=0;dashed=0;align=center;" parent="1" vertex="1">
                    <mxGeometry x="923.5" y="-766" width="160" height="170" as="geometry"/>
                </mxCell>
                <mxCell id="55" value="id&#10;name&#10;amount&#10;status&#10;type&#10;campus_id&#10;description&#10;created_at&#10;updated_ta" style="align=left;strokeColor=none;fillColor=none;spacingLeft=4;fontSize=12;verticalAlign=top;resizable=0;rotatable=0;part=1;" parent="54" vertex="1">
                    <mxGeometry y="30" width="160" height="140" as="geometry"/>
                </mxCell>
                <mxCell id="156" style="edgeStyle=none;html=1;entryX=0.75;entryY=1;entryDx=0;entryDy=0;" parent="1" source="56" target="10" edge="1">
                    <mxGeometry relative="1" as="geometry">
                        <Array as="points">
                            <mxPoint x="1478" y="204"/>
                            <mxPoint x="1573" y="204"/>
                        </Array>
                    </mxGeometry>
                </mxCell>
                <mxCell id="56" value="school_units" style="swimlane;childLayout=stackLayout;horizontal=1;startSize=30;horizontalStack=0;rounded=1;fontSize=14;fontStyle=0;strokeWidth=2;resizeParent=0;resizeLast=1;shadow=0;dashed=0;align=center;" parent="1" vertex="1">
                    <mxGeometry x="1398" y="264" width="160" height="184" as="geometry"/>
                </mxCell>
                <mxCell id="57" value="id&#10;name&#10;parent_id&#10;prefix&#10;suffix&#10;base_level&#10;target_level&#10;unit_id&#10;created_at&#10;updated_at" style="align=left;strokeColor=none;fillColor=none;spacingLeft=4;fontSize=12;verticalAlign=top;resizable=0;rotatable=0;part=1;" parent="56" vertex="1">
                    <mxGeometry y="30" width="160" height="154" as="geometry"/>
                </mxCell>
                <mxCell id="136" style="edgeStyle=none;html=1;entryX=0.5;entryY=0;entryDx=0;entryDy=0;exitX=0.75;exitY=0;exitDx=0;exitDy=0;" parent="1" source="58" target="134" edge="1">
                    <mxGeometry relative="1" as="geometry">
                        <mxPoint x="703" y="-386" as="sourcePoint"/>
                        <Array as="points">
                            <mxPoint x="708" y="-797"/>
                            <mxPoint x="2044" y="-797"/>
                        </Array>
                    </mxGeometry>
                </mxCell>
                <mxCell id="58" value="sequence" style="swimlane;childLayout=stackLayout;horizontal=1;startSize=30;horizontalStack=0;rounded=1;fontSize=14;fontStyle=0;strokeWidth=2;resizeParent=0;resizeLast=1;shadow=0;dashed=0;align=center;" parent="1" vertex="1">
                    <mxGeometry x="588" y="-371" width="160" height="129" as="geometry"/>
                </mxCell>
                <mxCell id="59" value="id&#10;name&#10;semester_id&#10;created_at&#10;updated_at" style="align=left;strokeColor=none;fillColor=none;spacingLeft=4;fontSize=12;verticalAlign=top;resizable=0;rotatable=0;part=1;" parent="58" vertex="1">
                    <mxGeometry y="30" width="160" height="99" as="geometry"/>
                </mxCell>
                <mxCell id="60" value="students" style="swimlane;childLayout=stackLayout;horizontal=1;startSize=30;horizontalStack=0;rounded=1;fontSize=14;fontStyle=0;strokeWidth=2;resizeParent=0;resizeLast=1;shadow=0;dashed=0;align=center;" parent="1" vertex="1">
                    <mxGeometry x="892" y="-335" width="160" height="282" as="geometry"/>
                </mxCell>
                <mxCell id="61" value="id&#10;address&#10;admission_batch&#10;dob&#10;email&#10;gender&#10;matric&#10;name&#10;parent_name&#10;parent_phone_number&#10;phone&#10;pob&#10;denomination&#10;type&#10;campus_id&#10;created_at&#10;updated_at" style="align=left;strokeColor=none;fillColor=none;spacingLeft=4;fontSize=12;verticalAlign=top;resizable=0;rotatable=0;part=1;" parent="60" vertex="1">
                    <mxGeometry y="30" width="160" height="252" as="geometry"/>
                </mxCell>
                <mxCell id="62" value="student_classes" style="swimlane;childLayout=stackLayout;horizontal=1;startSize=30;horizontalStack=0;rounded=1;fontSize=14;fontStyle=0;strokeWidth=2;resizeParent=0;resizeLast=1;shadow=0;dashed=0;align=center;" parent="1" vertex="1">
                    <mxGeometry x="1164" y="408" width="160" height="126" as="geometry"/>
                </mxCell>
                <mxCell id="63" value="id&#10;class_id&#10;student_id&#10;year_id&#10;created_at&#10;updated_at" style="align=left;strokeColor=none;fillColor=none;spacingLeft=4;fontSize=12;verticalAlign=top;resizable=0;rotatable=0;part=1;" parent="62" vertex="1">
                    <mxGeometry y="30" width="160" height="96" as="geometry"/>
                </mxCell>
                <mxCell id="67" value="student_scholarships" style="swimlane;childLayout=stackLayout;horizontal=1;startSize=30;horizontalStack=0;rounded=1;fontSize=14;fontStyle=0;strokeWidth=2;resizeParent=0;resizeLast=1;shadow=0;dashed=0;align=center;" parent="1" vertex="1">
                    <mxGeometry x="726.5" y="-554" width="160" height="155" as="geometry"/>
                </mxCell>
                <mxCell id="68" value="id&#10;batch_id&#10;student_id&#10;amount&#10;campus_id&#10;scholarship_id&#10;created_at&#10;updated_at" style="align=left;strokeColor=none;fillColor=none;spacingLeft=4;fontSize=12;verticalAlign=top;resizable=0;rotatable=0;part=1;" parent="67" vertex="1">
                    <mxGeometry y="30" width="160" height="125" as="geometry"/>
                </mxCell>
                <mxCell id="70" value="course_notes" style="swimlane;childLayout=stackLayout;horizontal=1;startSize=30;horizontalStack=0;rounded=1;fontSize=14;fontStyle=0;strokeWidth=2;resizeParent=0;resizeLast=1;shadow=0;dashed=0;align=center;" parent="1" vertex="1">
                    <mxGeometry x="1714" y="-172" width="160" height="154" as="geometry"/>
                </mxCell>
                <mxCell id="71" value="id&#10;batch_id&#10;program_course_id&#10;note_name&#10;note_path&#10;status&#10;created_at&#10;updated_at" style="align=left;strokeColor=none;fillColor=none;spacingLeft=4;fontSize=12;verticalAlign=top;resizable=0;rotatable=0;part=1;" parent="70" vertex="1">
                    <mxGeometry y="30" width="160" height="124" as="geometry"/>
                </mxCell>
                <mxCell id="72" value="lecturer_courses" style="swimlane;childLayout=stackLayout;horizontal=1;startSize=30;horizontalStack=0;rounded=1;fontSize=14;fontStyle=0;strokeWidth=2;resizeParent=0;resizeLast=1;shadow=0;dashed=0;align=center;" parent="1" vertex="1">
                    <mxGeometry x="1257" y="-157" width="160" height="139" as="geometry"/>
                </mxCell>
                <mxCell id="73" value="id&#10;batch_id&#10;class_id&#10;program_course_id&#10;lecturer_id&#10;created_at&#10;updated_at" style="align=left;strokeColor=none;fillColor=none;spacingLeft=4;fontSize=12;verticalAlign=top;resizable=0;rotatable=0;part=1;" parent="72" vertex="1">
                    <mxGeometry y="30" width="160" height="109" as="geometry"/>
                </mxCell>
                <mxCell id="76" value="semesters" style="swimlane;childLayout=stackLayout;horizontal=1;startSize=30;horizontalStack=0;rounded=1;fontSize=14;fontStyle=0;strokeWidth=2;resizeParent=0;resizeLast=1;shadow=0;dashed=0;align=center;" parent="1" vertex="1">
                    <mxGeometry x="390" y="-217" width="160" height="112" as="geometry"/>
                </mxCell>
                <mxCell id="77" value="id&#10;name&#10;degree_id&#10;created_at&#10;updated_at" style="align=left;strokeColor=none;fillColor=none;spacingLeft=4;fontSize=12;verticalAlign=top;resizable=0;rotatable=0;part=1;" parent="76" vertex="1">
                    <mxGeometry y="30" width="160" height="82" as="geometry"/>
                </mxCell>
                <mxCell id="78" value="units" style="swimlane;childLayout=stackLayout;horizontal=1;startSize=30;horizontalStack=0;rounded=1;fontSize=14;fontStyle=0;strokeWidth=2;resizeParent=0;resizeLast=1;shadow=0;dashed=0;align=center;" parent="1" vertex="1">
                    <mxGeometry x="1626" y="422" width="160" height="98" as="geometry"/>
                </mxCell>
                <mxCell id="79" value="id&#10;name&#10;created_at&#10;updated_at" style="align=left;strokeColor=none;fillColor=none;spacingLeft=4;fontSize=12;verticalAlign=top;resizable=0;rotatable=0;part=1;" parent="78" vertex="1">
                    <mxGeometry y="30" width="160" height="68" as="geometry"/>
                </mxCell>
                <mxCell id="88" style="edgeStyle=none;html=1;entryX=0.557;entryY=1.051;entryDx=0;entryDy=0;entryPerimeter=0;exitX=0.5;exitY=0;exitDx=0;exitDy=0;" parent="1" source="80" target="85" edge="1">
                    <mxGeometry relative="1" as="geometry">
                        <Array as="points">
                            <mxPoint x="1486" y="-589"/>
                            <mxPoint x="1747" y="-589"/>
                        </Array>
                    </mxGeometry>
                </mxCell>
                <mxCell id="133" style="edgeStyle=none;html=1;exitX=0.25;exitY=0;exitDx=0;exitDy=0;entryX=0.75;entryY=0;entryDx=0;entryDy=0;" parent="1" source="80" target="27" edge="1">
                    <mxGeometry relative="1" as="geometry">
                        <Array as="points">
                            <mxPoint x="1446" y="-572"/>
                            <mxPoint x="633" y="-572"/>
                        </Array>
                    </mxGeometry>
                </mxCell>
                <mxCell id="80" value="users" style="swimlane;childLayout=stackLayout;horizontal=1;startSize=30;horizontalStack=0;rounded=1;fontSize=14;fontStyle=0;strokeWidth=2;resizeParent=0;resizeLast=1;shadow=0;dashed=0;align=center;" parent="1" vertex="1">
                    <mxGeometry x="1406" y="-514" width="160" height="251" as="geometry"/>
                </mxCell>
                <mxCell id="81" value="id&#10;address&#10;name&#10;email&#10;gender&#10;matric&#10;type&#10;phone&#10;username&#10;password&#10;campus_id&#10;email_verified_at&#10;remember_token&#10;created_at&#10;updated_at" style="align=left;strokeColor=none;fillColor=none;spacingLeft=4;fontSize=12;verticalAlign=top;resizable=0;rotatable=0;part=1;" parent="80" vertex="1">
                    <mxGeometry y="30" width="160" height="221" as="geometry"/>
                </mxCell>
                <mxCell id="82" value="user_permissions" style="swimlane;childLayout=stackLayout;horizontal=1;startSize=30;horizontalStack=0;rounded=1;fontSize=14;fontStyle=0;strokeWidth=2;resizeParent=0;resizeLast=1;shadow=0;dashed=0;align=center;" parent="1" vertex="1">
                    <mxGeometry x="1658" y="-498" width="160" height="85" as="geometry"/>
                </mxCell>
                <mxCell id="83" value="id&#10;user_id&#10;permission_id" style="align=left;strokeColor=none;fillColor=none;spacingLeft=4;fontSize=12;verticalAlign=top;resizable=0;rotatable=0;part=1;" parent="82" vertex="1">
                    <mxGeometry y="30" width="160" height="55" as="geometry"/>
                </mxCell>
                <mxCell id="84" value="user_roles" style="swimlane;childLayout=stackLayout;horizontal=1;startSize=30;horizontalStack=0;rounded=1;fontSize=14;fontStyle=0;strokeWidth=2;resizeParent=0;resizeLast=1;shadow=0;dashed=0;align=center;" parent="1" vertex="1">
                    <mxGeometry x="1658" y="-731.25" width="160" height="113" as="geometry"/>
                </mxCell>
                <mxCell id="85" value="id&#10;role_id&#10;user_id&#10;created_at&#10;updated_at" style="align=left;strokeColor=none;fillColor=none;spacingLeft=4;fontSize=12;verticalAlign=top;resizable=0;rotatable=0;part=1;" parent="84" vertex="1">
                    <mxGeometry y="30" width="160" height="83" as="geometry"/>
                </mxCell>
                <mxCell id="86" value="user_scholarship" style="swimlane;childLayout=stackLayout;horizontal=1;startSize=30;horizontalStack=0;rounded=1;fontSize=14;fontStyle=0;strokeWidth=2;resizeParent=0;resizeLast=1;shadow=0;dashed=0;align=center;" parent="1" vertex="1">
                    <mxGeometry x="1057.5" y="-550" width="160" height="140" as="geometry"/>
                </mxCell>
                <mxCell id="87" value="id&#10;user_id&#10;scholarship_id&#10;batch_id&#10;campus_id&#10;created_at&#10;updated_at" style="align=left;strokeColor=none;fillColor=none;spacingLeft=4;fontSize=12;verticalAlign=top;resizable=0;rotatable=0;part=1;" parent="86" vertex="1">
                    <mxGeometry y="30" width="160" height="110" as="geometry"/>
                </mxCell>
                <mxCell id="91" style="edgeStyle=none;html=1;entryX=1;entryY=0;entryDx=0;entryDy=0;exitX=0.009;exitY=0.108;exitDx=0;exitDy=0;exitPerimeter=0;" parent="1" source="81" target="87" edge="1">
                    <mxGeometry relative="1" as="geometry">
                        <Array as="points">
                            <mxPoint x="1344" y="-463"/>
                            <mxPoint x="1344" y="-520"/>
                        </Array>
                    </mxGeometry>
                </mxCell>
                <mxCell id="93" style="edgeStyle=none;html=1;entryX=0.5;entryY=0;entryDx=0;entryDy=0;exitX=0.75;exitY=0;exitDx=0;exitDy=0;" parent="1" source="80" target="82" edge="1">
                    <mxGeometry relative="1" as="geometry">
                        <Array as="points">
                            <mxPoint x="1526" y="-570"/>
                            <mxPoint x="1738" y="-570"/>
                        </Array>
                    </mxGeometry>
                </mxCell>
                <mxCell id="95" style="edgeStyle=none;html=1;entryX=-0.006;entryY=0.33;entryDx=0;entryDy=0;entryPerimeter=0;exitX=0.5;exitY=1;exitDx=0;exitDy=0;" parent="1" source="54" target="87" edge="1">
                    <mxGeometry relative="1" as="geometry">
                        <mxPoint x="1003.5" y="-297" as="sourcePoint"/>
                        <Array as="points">
                            <mxPoint x="1004" y="-484"/>
                        </Array>
                    </mxGeometry>
                </mxCell>
                <mxCell id="98" style="edgeStyle=none;html=1;entryX=1;entryY=0.75;entryDx=0;entryDy=0;exitX=0.458;exitY=0.005;exitDx=0;exitDy=0;exitPerimeter=0;" parent="1" source="60" target="68" edge="1">
                    <mxGeometry relative="1" as="geometry">
                        <mxPoint x="962" y="-598" as="sourcePoint"/>
                        <Array as="points">
                            <mxPoint x="965" y="-430"/>
                        </Array>
                    </mxGeometry>
                </mxCell>
                <mxCell id="99" style="edgeStyle=none;html=1;exitX=0.75;exitY=1;exitDx=0;exitDy=0;entryX=1;entryY=0;entryDx=0;entryDy=0;" parent="1" source="81" target="73" edge="1">
                    <mxGeometry relative="1" as="geometry">
                        <Array as="points">
                            <mxPoint x="1526" y="-127"/>
                        </Array>
                    </mxGeometry>
                </mxCell>
                <mxCell id="102" style="edgeStyle=none;html=1;entryX=0.5;entryY=1;entryDx=0;entryDy=0;" parent="1" source="20" target="10" edge="1">
                    <mxGeometry relative="1" as="geometry">
                        <Array as="points">
                            <mxPoint x="1533" y="140"/>
                        </Array>
                    </mxGeometry>
                </mxCell>
                <mxCell id="106" style="edgeStyle=none;html=1;entryX=0.44;entryY=0.043;entryDx=0;entryDy=0;entryPerimeter=0;" parent="1" source="18" target="15" edge="1">
                    <mxGeometry relative="1" as="geometry">
                        <Array as="points">
                            <mxPoint x="1667" y="76"/>
                        </Array>
                    </mxGeometry>
                </mxCell>
                <mxCell id="108" style="edgeStyle=none;html=1;exitX=1;exitY=0.25;exitDx=0;exitDy=0;entryX=0.25;entryY=0;entryDx=0;entryDy=0;" parent="1" source="16" target="13" edge="1">
                    <mxGeometry relative="1" as="geometry">
                        <Array as="points">
                            <mxPoint x="1921" y="251"/>
                        </Array>
                    </mxGeometry>
                </mxCell>
                <mxCell id="109" style="edgeStyle=none;html=1;" parent="1" source="61" target="23" edge="1">
                    <mxGeometry relative="1" as="geometry"/>
                </mxCell>
                <mxCell id="110" style="edgeStyle=none;html=1;entryX=0.5;entryY=1;entryDx=0;entryDy=0;" parent="1" source="18" target="24" edge="1">
                    <mxGeometry relative="1" as="geometry">
                        <Array as="points">
                            <mxPoint x="1884" y="166"/>
                            <mxPoint x="1425" y="166"/>
                            <mxPoint x="1425" y="214"/>
                            <mxPoint x="972" y="214"/>
                        </Array>
                    </mxGeometry>
                </mxCell>
                <mxCell id="111" style="edgeStyle=none;html=1;entryX=0;entryY=0.25;entryDx=0;entryDy=0;exitX=1;exitY=0.5;exitDx=0;exitDy=0;" parent="1" source="12" target="57" edge="1">
                    <mxGeometry relative="1" as="geometry">
                        <mxPoint x="1234" y="333" as="sourcePoint"/>
                        <Array as="points">
                            <mxPoint x="1357" y="701"/>
                            <mxPoint x="1357" y="333"/>
                        </Array>
                    </mxGeometry>
                </mxCell>
                <mxCell id="112" style="edgeStyle=none;html=1;entryX=1;entryY=0.5;entryDx=0;entryDy=0;exitX=0.5;exitY=0;exitDx=0;exitDy=0;" parent="1" source="78" target="57" edge="1">
                    <mxGeometry relative="1" as="geometry">
                        <mxPoint x="1388" y="441" as="targetPoint"/>
                        <Array as="points">
                            <mxPoint x="1706" y="371"/>
                            <mxPoint x="1649" y="371"/>
                        </Array>
                    </mxGeometry>
                </mxCell>
                <mxCell id="113" style="edgeStyle=none;html=1;exitX=0;exitY=0.5;exitDx=0;exitDy=0;entryX=1;entryY=0.5;entryDx=0;entryDy=0;" parent="1" source="79" target="63" edge="1">
                    <mxGeometry relative="1" as="geometry">
                        <Array as="points"/>
                    </mxGeometry>
                </mxCell>
                <mxCell id="114" style="edgeStyle=none;html=1;exitX=0;exitY=0.75;exitDx=0;exitDy=0;entryX=0;entryY=0.25;entryDx=0;entryDy=0;" parent="1" source="61" target="63" edge="1">
                    <mxGeometry relative="1" as="geometry">
                        <Array as="points">
                            <mxPoint x="861" y="-116"/>
                            <mxPoint x="861" y="462"/>
                        </Array>
                    </mxGeometry>
                </mxCell>
                <mxCell id="116" style="edgeStyle=none;html=1;entryX=0.5;entryY=1;entryDx=0;entryDy=0;" parent="1" source="41" target="53" edge="1">
                    <mxGeometry relative="1" as="geometry">
                        <Array as="points">
                            <mxPoint x="1919" y="-272"/>
                        </Array>
                    </mxGeometry>
                </mxCell>
                <mxCell id="117" style="edgeStyle=none;html=1;entryX=0;entryY=0.25;entryDx=0;entryDy=0;" parent="1" source="77" target="59" edge="1">
                    <mxGeometry relative="1" as="geometry">
                        <Array as="points">
                            <mxPoint x="470" y="-316"/>
                        </Array>
                    </mxGeometry>
                </mxCell>
                <mxCell id="118" style="edgeStyle=none;html=1;entryX=0.5;entryY=0;entryDx=0;entryDy=0;" parent="1" source="61" target="47" edge="1">
                    <mxGeometry relative="1" as="geometry">
                        <Array as="points">
                            <mxPoint x="709" y="-179"/>
                        </Array>
                    </mxGeometry>
                </mxCell>
                <mxCell id="121" style="edgeStyle=none;html=1;entryX=0;entryY=0.5;entryDx=0;entryDy=0;" parent="1" source="8" target="63" edge="1">
                    <mxGeometry relative="1" as="geometry">
                        <Array as="points">
                            <mxPoint x="709" y="486"/>
                        </Array>
                    </mxGeometry>
                </mxCell>
                <mxCell id="122" style="edgeStyle=none;html=1;exitX=1;exitY=0.25;exitDx=0;exitDy=0;entryX=0.25;entryY=1;entryDx=0;entryDy=0;" parent="1" source="8" target="24" edge="1">
                    <mxGeometry relative="1" as="geometry">
                        <Array as="points">
                            <mxPoint x="932" y="294"/>
                        </Array>
                    </mxGeometry>
                </mxCell>
                <mxCell id="124" style="edgeStyle=none;html=1;exitX=0;exitY=0.5;exitDx=0;exitDy=0;entryX=0.998;entryY=0.409;entryDx=0;entryDy=0;entryPerimeter=0;" parent="1" source="81" target="26" edge="1">
                    <mxGeometry relative="1" as="geometry">
                        <Array as="points">
                            <mxPoint x="1358" y="-373"/>
                            <mxPoint x="1358" y="-252"/>
                        </Array>
                    </mxGeometry>
                </mxCell>
                <mxCell id="125" style="edgeStyle=none;html=1;entryX=0.25;entryY=0;entryDx=0;entryDy=0;exitX=0.25;exitY=1;exitDx=0;exitDy=0;" parent="1" source="31" edge="1">
                    <mxGeometry relative="1" as="geometry">
                        <mxPoint x="440" y="274" as="targetPoint"/>
                        <mxPoint x="427" y="173" as="sourcePoint"/>
                    </mxGeometry>
                </mxCell>
                <mxCell id="130" style="edgeStyle=none;html=1;entryX=0.25;entryY=0;entryDx=0;entryDy=0;exitX=0.5;exitY=1;exitDx=0;exitDy=0;" parent="1" source="59" target="47" edge="1">
                    <mxGeometry relative="1" as="geometry">
                        <Array as="points"/>
                    </mxGeometry>
                </mxCell>
                <mxCell id="134" value="program_sequence_totals" style="swimlane;childLayout=stackLayout;horizontal=1;startSize=30;horizontalStack=0;rounded=1;fontSize=14;fontStyle=0;strokeWidth=2;resizeParent=0;resizeLast=1;shadow=0;dashed=0;align=center;" parent="1" vertex="1">
                    <mxGeometry x="1964" y="-222.5" width="160" height="124.5" as="geometry"/>
                </mxCell>
                <mxCell id="135" value="id&#10;sequence_id&#10;program_id&#10;total&#10;created_at&#10;updated_at" style="align=left;strokeColor=none;fillColor=none;spacingLeft=4;fontSize=12;verticalAlign=top;resizable=0;rotatable=0;part=1;" parent="134" vertex="1">
                    <mxGeometry y="30" width="160" height="94.5" as="geometry"/>
                </mxCell>
                <mxCell id="137" style="edgeStyle=none;html=1;entryX=0.25;entryY=1;entryDx=0;entryDy=0;" parent="1" source="18" target="135" edge="1">
                    <mxGeometry relative="1" as="geometry">
                        <Array as="points">
                            <mxPoint x="2004" y="77"/>
                        </Array>
                    </mxGeometry>
                </mxCell>
                <mxCell id="152" style="edgeStyle=none;html=1;entryX=0.25;entryY=1;entryDx=0;entryDy=0;" parent="1" source="138" target="141" edge="1">
                    <mxGeometry relative="1" as="geometry"/>
                </mxCell>
                <mxCell id="138" value="grading_system" style="swimlane;childLayout=stackLayout;horizontal=1;startSize=30;horizontalStack=0;rounded=1;fontSize=14;fontStyle=0;strokeWidth=2;resizeParent=0;resizeLast=1;shadow=0;dashed=0;align=center;" parent="1" vertex="1">
                    <mxGeometry x="1968" y="467" width="160" height="115" as="geometry"/>
                </mxCell>
                <mxCell id="139" value="id&#10;name&#10;total&#10;created_at&#10;updated_at" style="align=left;strokeColor=none;fillColor=none;spacingLeft=4;fontSize=12;verticalAlign=top;resizable=0;rotatable=0;part=1;" parent="138" vertex="1">
                    <mxGeometry y="30" width="160" height="85" as="geometry"/>
                </mxCell>
                <mxCell id="140" value="program_grading_scale" style="swimlane;childLayout=stackLayout;horizontal=1;startSize=30;horizontalStack=0;rounded=1;fontSize=14;fontStyle=0;strokeWidth=2;resizeParent=0;resizeLast=1;shadow=0;dashed=0;align=center;" parent="1" vertex="1">
                    <mxGeometry x="2008" y="200" width="160" height="86" as="geometry"/>
                </mxCell>
                <mxCell id="141" value="id&#10;program_id&#10;grading_sclae_id" style="align=left;strokeColor=none;fillColor=none;spacingLeft=4;fontSize=12;verticalAlign=top;resizable=0;rotatable=0;part=1;" parent="140" vertex="1">
                    <mxGeometry y="30" width="160" height="56" as="geometry"/>
                </mxCell>
                <mxCell id="149" style="edgeStyle=none;html=1;" parent="1" source="142" target="146" edge="1">
                    <mxGeometry relative="1" as="geometry">
                        <Array as="points">
                            <mxPoint x="340" y="-655"/>
                        </Array>
                    </mxGeometry>
                </mxCell>
                <mxCell id="142" value="report_card" style="swimlane;childLayout=stackLayout;horizontal=1;startSize=30;horizontalStack=0;rounded=1;fontSize=14;fontStyle=0;strokeWidth=2;resizeParent=0;resizeLast=1;shadow=0;dashed=0;align=center;" parent="1" vertex="1">
                    <mxGeometry x="420" y="-704.5" width="160" height="99" as="geometry"/>
                </mxCell>
                <mxCell id="143" value="id&#10;name&#10;created_at&#10;updated_at" style="align=left;strokeColor=none;fillColor=none;spacingLeft=4;fontSize=12;verticalAlign=top;resizable=0;rotatable=0;part=1;" parent="142" vertex="1">
                    <mxGeometry y="30" width="160" height="69" as="geometry"/>
                </mxCell>
                <mxCell id="146" value="program_sequence_report_card" style="swimlane;childLayout=stackLayout;horizontal=1;startSize=30;horizontalStack=0;rounded=1;fontSize=14;fontStyle=0;strokeWidth=2;resizeParent=0;resizeLast=1;shadow=0;dashed=0;align=center;" parent="1" vertex="1">
                    <mxGeometry x="236" y="-544" width="208" height="128" as="geometry"/>
                </mxCell>
                <mxCell id="147" value="id&#10;program_id&#10;sequence_id&#10;report_card_id&#10;created_at&#10;updated_at" style="align=left;strokeColor=none;fillColor=none;spacingLeft=4;fontSize=12;verticalAlign=top;resizable=0;rotatable=0;part=1;" parent="146" vertex="1">
                    <mxGeometry y="30" width="208" height="98" as="geometry"/>
                </mxCell>
                <mxCell id="148" style="edgeStyle=none;html=1;exitX=0;exitY=0;exitDx=0;exitDy=0;entryX=0.75;entryY=1;entryDx=0;entryDy=0;" parent="1" source="59" target="147" edge="1">
                    <mxGeometry relative="1" as="geometry">
                        <Array as="points">
                            <mxPoint x="392" y="-341"/>
                        </Array>
                    </mxGeometry>
                </mxCell>
                <mxCell id="150" style="edgeStyle=none;html=1;entryX=0.5;entryY=1;entryDx=0;entryDy=0;exitX=0.674;exitY=1.049;exitDx=0;exitDy=0;exitPerimeter=0;" parent="1" source="18" target="147" edge="1">
                    <mxGeometry relative="1" as="geometry">
                        <Array as="points">
                            <mxPoint x="1912" y="216"/>
                            <mxPoint x="1799" y="216"/>
                            <mxPoint x="1799" y="552"/>
                            <mxPoint x="340" y="557"/>
                        </Array>
                    </mxGeometry>
                </mxCell>
                <mxCell id="151" style="edgeStyle=none;html=1;exitX=1;exitY=0.75;exitDx=0;exitDy=0;" parent="1" source="18" target="140" edge="1">
                    <mxGeometry relative="1" as="geometry">
                        <Array as="points">
                            <mxPoint x="2088" y="98"/>
                        </Array>
                    </mxGeometry>
                </mxCell>
                <mxCell id="153" value="grading_ranges" style="swimlane;childLayout=stackLayout;horizontal=1;startSize=30;horizontalStack=0;rounded=1;fontSize=14;fontStyle=0;strokeWidth=2;resizeParent=0;resizeLast=1;shadow=0;dashed=0;align=center;" parent="1" vertex="1">
                    <mxGeometry x="1748" y="611" width="160" height="142" as="geometry"/>
                </mxCell>
                <mxCell id="154" value="id&#10;label&#10;min_score&#10;max_score&#10;grading_system_id&#10;created_at&#10;updated_at" style="align=left;strokeColor=none;fillColor=none;spacingLeft=4;fontSize=12;verticalAlign=top;resizable=0;rotatable=0;part=1;" parent="153" vertex="1">
                    <mxGeometry y="30" width="160" height="112" as="geometry"/>
                </mxCell>
                <mxCell id="155" style="edgeStyle=none;html=1;entryX=1;entryY=0.5;entryDx=0;entryDy=0;" parent="1" source="139" target="153" edge="1">
                    <mxGeometry relative="1" as="geometry">
                        <Array as="points">
                            <mxPoint x="2048" y="684"/>
                        </Array>
                    </mxGeometry>
                </mxCell>
                <mxCell id="164" style="edgeStyle=none;html=1;entryX=0.75;entryY=0;entryDx=0;entryDy=0;" parent="1" source="157" target="160" edge="1">
                    <mxGeometry relative="1" as="geometry">
                        <Array as="points">
                            <mxPoint x="932" y="579"/>
                            <mxPoint x="706" y="579"/>
                        </Array>
                    </mxGeometry>
                </mxCell>
                <mxCell id="157" value="promotion" style="swimlane;childLayout=stackLayout;horizontal=1;startSize=30;horizontalStack=0;rounded=1;fontSize=14;fontStyle=0;strokeWidth=2;resizeParent=0;resizeLast=1;shadow=0;dashed=0;align=center;" parent="1" vertex="1">
                    <mxGeometry x="852" y="679" width="160" height="129" as="geometry"/>
                </mxCell>
                <mxCell id="158" value="id&#10;batch_id&#10;base_unit&#10;target_unit&#10;created_at&#10;updated_at" style="align=left;strokeColor=none;fillColor=none;spacingLeft=4;fontSize=12;verticalAlign=top;resizable=0;rotatable=0;part=1;" parent="157" vertex="1">
                    <mxGeometry y="30" width="160" height="99" as="geometry"/>
                </mxCell>
                <mxCell id="160" value="student_promotions" style="swimlane;childLayout=stackLayout;horizontal=1;startSize=30;horizontalStack=0;rounded=1;fontSize=14;fontStyle=0;strokeWidth=2;resizeParent=0;resizeLast=1;shadow=0;dashed=0;align=center;" parent="1" vertex="1">
                    <mxGeometry x="586" y="669" width="160" height="120" as="geometry"/>
                </mxCell>
                <mxCell id="161" value="id&#10;promotion_id&#10;student_id&#10;created_at&#10;updated_at" style="align=left;strokeColor=none;fillColor=none;spacingLeft=4;fontSize=12;verticalAlign=top;resizable=0;rotatable=0;part=1;" parent="160" vertex="1">
                    <mxGeometry y="30" width="160" height="90" as="geometry"/>
                </mxCell>
                <mxCell id="162" style="edgeStyle=none;html=1;exitX=0.25;exitY=1;exitDx=0;exitDy=0;entryX=1;entryY=0.5;entryDx=0;entryDy=0;" parent="1" source="57" target="157" edge="1">
                    <mxGeometry relative="1" as="geometry">
                        <Array as="points">
                            <mxPoint x="1438" y="781"/>
                            <mxPoint x="1119" y="781"/>
                            <mxPoint x="1119" y="744"/>
                        </Array>
                    </mxGeometry>
                </mxCell>
                <mxCell id="163" style="edgeStyle=none;html=1;exitX=0.25;exitY=1;exitDx=0;exitDy=0;entryX=0.25;entryY=0;entryDx=0;entryDy=0;" parent="1" source="61" target="160" edge="1">
                    <mxGeometry relative="1" as="geometry">
                        <Array as="points">
                            <mxPoint x="932" y="12"/>
                            <mxPoint x="828" y="12"/>
                            <mxPoint x="828" y="527"/>
                            <mxPoint x="626" y="527"/>
                        </Array>
                    </mxGeometry>
                </mxCell>
                <mxCell id="167" style="edgeStyle=none;html=1;exitX=0;exitY=0.75;exitDx=0;exitDy=0;entryX=0.75;entryY=0;entryDx=0;entryDy=0;" parent="1" source="18" target="34" edge="1">
                    <mxGeometry relative="1" as="geometry">
                        <Array as="points">
                            <mxPoint x="1636" y="98"/>
                            <mxPoint x="1636" y="151"/>
                            <mxPoint x="1325" y="151"/>
                            <mxPoint x="1325" y="226"/>
                            <mxPoint x="516" y="226"/>
                        </Array>
                    </mxGeometry>
                </mxCell>
                <mxCell id="168" value="faqs" style="swimlane;childLayout=stackLayout;horizontal=1;startSize=30;horizontalStack=0;rounded=1;fontSize=14;fontStyle=0;strokeWidth=2;resizeParent=0;resizeLast=1;shadow=0;dashed=0;align=center;" parent="1" vertex="1">
                    <mxGeometry x="1507" y="631" width="160" height="129" as="geometry"/>
                </mxCell>
                <mxCell id="169" value="id&#10;question&#10;response&#10;program_id&#10;created_at&#10;updated_at" style="align=left;strokeColor=none;fillColor=none;spacingLeft=4;fontSize=12;verticalAlign=top;resizable=0;rotatable=0;part=1;" parent="168" vertex="1">
                    <mxGeometry y="30" width="160" height="99" as="geometry"/>
                </mxCell>
                <mxCell id="170" style="edgeStyle=none;html=1;exitX=0.25;exitY=1;exitDx=0;exitDy=0;entryX=1.003;entryY=0.627;entryDx=0;entryDy=0;entryPerimeter=0;" parent="1" source="18" target="169" edge="1">
                    <mxGeometry relative="1" as="geometry">
                        <Array as="points">
                            <mxPoint x="1844" y="566"/>
                            <mxPoint x="1705" y="566"/>
                            <mxPoint x="1705" y="723"/>
                        </Array>
                    </mxGeometry>
                </mxCell>
                <mxCell id="171" value="Degree" style="swimlane;childLayout=stackLayout;horizontal=1;startSize=30;horizontalStack=0;rounded=1;fontSize=14;fontStyle=0;strokeWidth=2;resizeParent=0;resizeLast=1;shadow=0;dashed=0;align=center;" vertex="1" parent="1">
                    <mxGeometry x="353" y="669" width="160" height="113" as="geometry"/>
                </mxCell>
                <mxCell id="172" value="id&#10;name&#10;duration&#10;created_at&#10;updated_at" style="align=left;strokeColor=none;fillColor=none;spacingLeft=4;fontSize=12;verticalAlign=top;resizable=0;rotatable=0;part=1;" vertex="1" parent="171">
                    <mxGeometry y="30" width="160" height="83" as="geometry"/>
                </mxCell>
                <mxCell id="173" style="edgeStyle=none;html=1;entryX=0;entryY=0.25;entryDx=0;entryDy=0;" edge="1" parent="1" source="172" target="77">
                    <mxGeometry relative="1" as="geometry">
                        <Array as="points">
                            <mxPoint x="298" y="741"/>
                            <mxPoint x="298" y="-166"/>
                        </Array>
                    </mxGeometry>
                </mxCell>
            </root>
        </mxGraphModel>
    </diagram>
</mxfile>